<svg width="100" height="100" viewBox="0 0 100 100" xmlns="http://www.w3.org/2000/svg">
  <path d="M50,20 C60,25 65,35 65,50 C65,65 60,75 50,80 C40,75 35,65 35,50 C35,35 40,25 50,20 Z" fill="#00C000"/>
  <path d="M35,50 L25,60 L30,70 L40,70 L35,80 L30,70 L25,70 Z" fill="#00C000"/>
  <path d="M65,50 L75,60 L70,70 L60,70 L65,80 L70,70 L75,70 Z" fill="#00C000"/>
  <path d="M50,35 C45,40 40,45 35,50 L25,60 L30,70 L40,70 L35,80 L30,70 L25,70 L20,65 C20,60 25,55 30,50 C35,45 40,40 45,35 Z" fill="#FFFF00"/>
  <path d="M50,65 C55,70 60,75 65,80 L75,60 L70,50 L60,50 L65,40 C60,35 55,30 50,25 C45,30 40,35 35,40 L30,50 L25,60 Z" fill="#FFFF00"/>
  <path d="M50,25 L55,30 L60,35 L65,40 C65,35 60,30 55,25 Z" fill="#C00000"/>
  <path d="M35,25 L30,30 L25,35 L20,40 C20,35 25,30 30,25 Z" fill="#C00000"/>
  <path d="M50,50 L53,53 L55,50 L53,47 Z" fill="#000000"/>
</svg>